<?xml version="1.0" encoding="UTF-8" standalone="no" ?>
<!DOCTYPE svg PUBLIC "-//W3C//DTD SVG 1.1//EN" "http://www.w3.org/Graphics/SVG/1.1/DTD/svg11.dtd">
<svg xmlns="http://www.w3.org/2000/svg" xmlns:xlink="http://www.w3.org/1999/xlink" version="1.1" width="1080" height="1080" viewBox="0 0 1080 1080" xml:space="preserve">
<desc>Created with Fabric.js 5.2.4</desc>
<defs>
</defs>
<g transform="matrix(1 0 0 1 540 540)" id="06bed5c8-701f-47db-9343-da228c5be55e"  >
<rect style="stroke: none; stroke-width: 1; stroke-dasharray: none; stroke-linecap: butt; stroke-dashoffset: 0; stroke-linejoin: miter; stroke-miterlimit: 4; fill: rgb(255,255,255); fill-rule: nonzero; opacity: 1; visibility: hidden;" vector-effect="non-scaling-stroke"  x="-540" y="-540" rx="0" ry="0" width="1080" height="1080" />
</g>
<g transform="matrix(1 0 0 1 540 540)" id="07e6db31-9198-4647-82ad-ea1c79068795"  >
</g>
<g transform="matrix(1 0 0 1 540 540)"  >
<g style="" vector-effect="non-scaling-stroke"   >
		<g transform="matrix(1 0 0 1 -188 -98.15)"  >
<circle style="stroke: none; stroke-width: 1; stroke-dasharray: none; stroke-linecap: butt; stroke-dashoffset: 0; stroke-linejoin: miter; stroke-miterlimit: 4; fill: rgb(0,0,0); fill-rule: nonzero; opacity: 1;" vector-effect="non-scaling-stroke"  cx="0" cy="0" r="9.4" />
</g>
		<g transform="matrix(1 0 0 1 -267.9 0.35)"  >
<path style="stroke: none; stroke-width: 1; stroke-dasharray: none; stroke-linecap: butt; stroke-dashoffset: 0; stroke-linejoin: miter; stroke-miterlimit: 4; fill: rgb(0,0,0); fill-rule: nonzero; opacity: 1;" vector-effect="non-scaling-stroke"  transform=" translate(-689.1, -529.2)" d="M 689.1 309.5 C 567.8000000000001 309.5 469.40000000000003 407.8 469.40000000000003 529.2 C 469.40000000000003 650.5 567.8000000000001 748.9000000000001 689.1 748.9000000000001 C 810.4 748.9000000000001 908.8 650.5000000000001 908.8 529.2 C 908.8 407.8 810.4 309.5 689.1 309.5 z M 812.9 599.3 L 704 599.3 L 704 581.8 L 812.8 581.8 L 812.8 599.3 z M 795.6 432.4 C 795.6 432.4 787.7 443.9 791.8000000000001 471.09999999999997 C 799.5000000000001 522.1999999999999 772.7 567.5999999999999 725.1 567.5999999999999 L 690 567.5999999999999 L 690 581.5999999999999 C 690 581.5999999999999 668.8 581.5999999999999 661.9 581.5999999999999 C 655 581.5999999999999 641.1999999999999 580.4999999999999 635 586.4999999999999 C 572.5 646.2999999999998 559.3 663.4999999999999 554.9 665.8999999999999 C 552.1 667.3999999999999 551.4 664.0999999999999 551.4 664.0999999999999 L 732.2 441.19999999999993 C 732.2 400.99999999999994 776.1 390.29999999999995 793.6 420.0999999999999 L 816.9 411.9999999999999 L 795.6 432.4 z" stroke-linecap="round" />
</g>
		<g transform="matrix(1 0 0 1 93.35 -122.6)"  >
<path style="stroke: none; stroke-width: 1; stroke-dasharray: none; stroke-linecap: butt; stroke-dashoffset: 0; stroke-linejoin: miter; stroke-miterlimit: 4; fill: rgb(0,0,0); fill-rule: nonzero; opacity: 1;" vector-effect="non-scaling-stroke"  transform=" translate(-1050.35, -406.25)" d="M 1076.3 482.3 L 1075.8 482.3 C 1072.1 491.7 1064.8 503.7 1044.2 503.7 C 1010.5 503.7 997.1 475.59999999999997 997.1 426.1 C 997.1 362.1 1019.6 352.20000000000005 1041.5 352.20000000000005 C 1057 352.20000000000005 1068.8 360.00000000000006 1074.2 372.80000000000007 L 1074.7 372.80000000000007 L 1074.7 308.80000000000007 L 1103.6000000000001 308.80000000000007 L 1103.6000000000001 499.9000000000001 L 1076.3000000000002 499.9000000000001 L 1076.3000000000002 482.3 z M 1050.1 375.2 C 1033.5 375.2 1027.6 388.59999999999997 1027.6 427.4 C 1027.6 460.09999999999997 1031.8999999999999 480.7 1052 480.7 C 1071.8 480.7 1076.4 460.4 1076.4 429.59999999999997 C 1076.3 395 1072.3 375.2 1050.1 375.2 z" stroke-linecap="round" />
</g>
		<g transform="matrix(1 0 0 1 227.65 -100.9)"  >
<path style="stroke: none; stroke-width: 1; stroke-dasharray: none; stroke-linecap: butt; stroke-dashoffset: 0; stroke-linejoin: miter; stroke-miterlimit: 4; fill: rgb(0,0,0); fill-rule: nonzero; opacity: 1;" vector-effect="non-scaling-stroke"  transform=" translate(-1184.65, -427.95)" d="M 1228.6 470 C 1228.6 475.4 1231.8 480.2 1236.1 480.2 C 1238 480.2 1239.8 479.9 1240.8999999999999 479.4 L 1240.8999999999999 498.09999999999997 C 1237.3999999999999 499.7 1232.3 501.59999999999997 1226.6999999999998 501.59999999999997 C 1213.8999999999999 501.59999999999997 1203.1 496.49999999999994 1202.2999999999997 482.59999999999997 L 1201.7999999999997 482.59999999999997 C 1193.9999999999998 496.79999999999995 1182.7999999999997 503.7 1165.8999999999996 503.7 C 1142.8999999999996 503.7 1128.3999999999996 490.9 1128.3999999999996 463.3 C 1128.3999999999996 431.2 1142.2999999999997 424.5 1161.8999999999996 418.1 L 1184.3999999999996 411.90000000000003 C 1194.7999999999997 409.00000000000006 1201.2999999999997 406.00000000000006 1201.2999999999997 393.40000000000003 C 1201.2999999999997 380.3 1196.7999999999997 372.00000000000006 1181.4999999999998 372.00000000000006 C 1162.1999999999998 372.00000000000006 1159.5999999999997 385.70000000000005 1159.5999999999997 399.6000000000001 L 1132.2999999999997 399.6000000000001 C 1132.2999999999997 369.1000000000001 1144.8999999999996 352.2000000000001 1182.8999999999996 352.2000000000001 C 1208.2999999999997 352.2000000000001 1228.6999999999996 362.1000000000001 1228.6999999999996 387.5000000000001 L 1228.6999999999996 470 z M 1201.3 423.9 C 1193.8 429.79999999999995 1177.7 433.29999999999995 1169.2 437.29999999999995 C 1160.9 441.29999999999995 1157.4 449.9 1157.4 460.59999999999997 C 1157.4 472.59999999999997 1163.3000000000002 482.29999999999995 1175.3000000000002 482.29999999999995 C 1192.7000000000003 482.29999999999995 1201.3000000000002 469.19999999999993 1201.3000000000002 447.99999999999994 L 1201.3000000000002 423.9 z" stroke-linecap="round" />
</g>
		<g transform="matrix(1 0 0 1 327 -120.65)"  >
<path style="stroke: none; stroke-width: 1; stroke-dasharray: none; stroke-linecap: butt; stroke-dashoffset: 0; stroke-linejoin: miter; stroke-miterlimit: 4; fill: rgb(0,0,0); fill-rule: nonzero; opacity: 1;" vector-effect="non-scaling-stroke"  transform=" translate(-1284, -408.2)" d="M 1247.9 355.9 L 1267.7 355.9 L 1267.7 314.9 L 1296.6000000000001 314.9 L 1296.6000000000001 355.9 L 1320.2 355.9 L 1320.2 377.29999999999995 L 1296.6000000000001 377.29999999999995 L 1296.6000000000001 463.19999999999993 C 1296.6000000000001 474.3999999999999 1299.8000000000002 478.49999999999994 1309.7 478.49999999999994 C 1314 478.49999999999994 1317.5 478.19999999999993 1320.1000000000001 477.69999999999993 L 1320.1000000000001 499.0999999999999 C 1313.9 500.69999999999993 1305.9 501.4999999999999 1296.8000000000002 501.4999999999999 C 1277.3000000000002 501.4999999999999 1267.6000000000001 496.0999999999999 1267.6000000000001 466.6999999999999 L 1267.6000000000001 377.29999999999984 L 1247.8000000000002 377.29999999999984 L 1247.8000000000002 355.9 z" stroke-linecap="round" />
</g>
		<g transform="matrix(1 0 0 1 431.35 -100.9)"  >
<path style="stroke: none; stroke-width: 1; stroke-dasharray: none; stroke-linecap: butt; stroke-dashoffset: 0; stroke-linejoin: miter; stroke-miterlimit: 4; fill: rgb(0,0,0); fill-rule: nonzero; opacity: 1;" vector-effect="non-scaling-stroke"  transform=" translate(-1388.35, -427.95)" d="M 1432.3 470 C 1432.3 475.4 1435.5 480.2 1439.8 480.2 C 1441.7 480.2 1443.5 479.9 1444.6 479.4 L 1444.6 498.09999999999997 C 1441.1 499.7 1436 501.59999999999997 1430.3999999999999 501.59999999999997 C 1417.6 501.59999999999997 1406.8 496.49999999999994 1405.9999999999998 482.59999999999997 L 1405.4999999999998 482.59999999999997 C 1397.6999999999998 496.79999999999995 1386.4999999999998 503.7 1369.5999999999997 503.7 C 1346.5999999999997 503.7 1332.0999999999997 490.9 1332.0999999999997 463.3 C 1332.0999999999997 431.2 1345.9999999999998 424.5 1365.5999999999997 418.1 L 1388.0999999999997 411.90000000000003 C 1398.4999999999998 409.00000000000006 1404.9999999999998 406.00000000000006 1404.9999999999998 393.40000000000003 C 1404.9999999999998 380.3 1400.4999999999998 372.00000000000006 1385.1999999999998 372.00000000000006 C 1365.8999999999999 372.00000000000006 1363.2999999999997 385.70000000000005 1363.2999999999997 399.6000000000001 L 1336 399.6000000000001 C 1336 369.1000000000001 1348.6 352.2000000000001 1386.6 352.2000000000001 C 1412 352.2000000000001 1432.3999999999999 362.1000000000001 1432.3999999999999 387.5000000000001 L 1432.3999999999999 470 z M 1405 423.9 C 1397.5 429.79999999999995 1381.4 433.29999999999995 1372.9 437.29999999999995 C 1364.6000000000001 441.29999999999995 1361.1000000000001 449.9 1361.1000000000001 460.59999999999997 C 1361.1000000000001 472.59999999999997 1367.0000000000002 482.29999999999995 1379.0000000000002 482.29999999999995 C 1396.4000000000003 482.29999999999995 1405.0000000000002 469.19999999999993 1405.0000000000002 447.99999999999994 L 1405.0000000000002 423.9 z" stroke-linecap="round" />
</g>
		<g transform="matrix(1 0 0 1 61.55 118.9)"  >
<path style="stroke: none; stroke-width: 1; stroke-dasharray: none; stroke-linecap: butt; stroke-dashoffset: 0; stroke-linejoin: miter; stroke-miterlimit: 4; fill: rgb(0,0,0); fill-rule: nonzero; opacity: 1;" vector-effect="non-scaling-stroke"  transform=" translate(-1018.55, -647.75)" d="M 1004.1 551.1 L 1033 551.1 L 1033 580 L 1004.1 580 L 1004.1 551.1 z M 1004.1 600.4 L 1033 600.4 L 1033 744.4 L 1004.1 744.4 L 1004.1 600.4 z" stroke-linecap="round" />
</g>
		<g transform="matrix(1 0 0 1 163.85 120)"  >
<path style="stroke: none; stroke-width: 1; stroke-dasharray: none; stroke-linecap: butt; stroke-dashoffset: 0; stroke-linejoin: miter; stroke-miterlimit: 4; fill: rgb(0,0,0); fill-rule: nonzero; opacity: 1;" vector-effect="non-scaling-stroke"  transform=" translate(-1120.85, -648.85)" d="M 1064.8 553.3 L 1093.7 553.3 L 1093.7 660.5999999999999 L 1094.2 660.5999999999999 L 1137.8 600.3999999999999 L 1171.3 600.0999999999999 L 1127.8999999999999 655.8 L 1176.8999999999999 744.4 L 1145.3 744.4 L 1110 678.8 L 1093.7 698.5999999999999 L 1093.7 744.3999999999999 L 1064.8 744.3999999999999 L 1064.8 553.3 z" stroke-linecap="round" />
</g>
		<g transform="matrix(1 0 0 1 284.85 145.4)"  >
<path style="stroke: none; stroke-width: 1; stroke-dasharray: none; stroke-linecap: butt; stroke-dashoffset: 0; stroke-linejoin: miter; stroke-miterlimit: 4; fill: rgb(0,0,0); fill-rule: nonzero; opacity: 1;" vector-effect="non-scaling-stroke"  transform=" translate(-1241.85, -674.25)" d="M 1265 727.5 L 1264.2 727.5 C 1257 740.3 1243.3 748.1 1227.3 748.1 C 1205.8999999999999 748.1 1191.3999999999999 738.2 1191.3999999999999 701 L 1191.3999999999999 600.4 L 1220.3 600.4 L 1220.3 703.6999999999999 C 1220.3 719.8 1227.5 725.0999999999999 1239.8 725.0999999999999 C 1252.1 725.0999999999999 1263.3999999999999 717.0999999999999 1263.3999999999999 700.9999999999999 L 1263.3999999999999 600.4 L 1292.3 600.4 L 1292.3 744.4 L 1265 744.4 L 1265 727.5 z" stroke-linecap="round" />
</g>
</g>
</g>
</svg>