<?xml version="1.0" encoding="utf-8"?>
<!-- Generator: Adobe Illustrator 25.4.0, SVG Export Plug-In . SVG Version: 6.00 Build 0)  -->
<svg version="1.1" id="Layer_1" xmlns="http://www.w3.org/2000/svg" xmlns:xlink="http://www.w3.org/1999/xlink" x="0px" y="0px"
	 viewBox="0 0 40 40" style="enable-background:new 0 0 40 40;" xml:space="preserve">
<style type="text/css">
	.st0{fill:#020203;}
	.st1{fill:#FFFFFF;}
</style>
<g>
	<path class="st0" d="M20,40L20,40C9,40,0,31,0,20v0C0,9,9,0,20,0h0c11,0,20,9,20,20v0C40,31,31,40,20,40z"/>
	<g>
		<path class="st1" d="M13.7,23.7v-7.2h0.4v1.1c0.1-0.1,0.1-0.1,0.1-0.2c0.3-0.7,1-1.1,1.8-1.1c0.9-0.1,1.6,0.3,2,1.1
			c0.6,1,0.6,2.2,0.1,3.2c-0.4,0.9-1.4,1.3-2.4,1.2c-0.7-0.1-1.2-0.5-1.6-1v2.9L13.7,23.7z M14.2,19l0.1,0.8c0.2,1,0.7,1.6,1.6,1.7
			c0.9,0.2,1.7-0.4,2-1.2c0.4-0.8,0.3-1.8-0.1-2.6c-0.3-0.7-1.1-1.1-1.9-1c-0.7,0.1-1.4,0.6-1.6,1.3C14.3,18.4,14.2,18.7,14.2,19
			L14.2,19z M26.5,20c-0.1,1-1,1.9-2.1,1.9c-1.7,0.1-2.4-1-2.5-2.3c-0.1-0.7,0-1.4,0.3-2c0.4-0.9,1.3-1.4,2.3-1.2
			c0.9,0.1,1.7,0.7,1.9,1.6c0.1,0.4,0.2,0.8,0.2,1.2h-4.3c-0.1,1.1,0.5,2.1,1.4,2.3c1.1,0.3,2-0.2,2.3-1.2C26.1,20,26.3,20,26.5,20
			L26.5,20z M22.3,18.8h3.8c0-1.2-0.8-2.1-1.8-2.1C23.2,16.7,22.4,17.5,22.3,18.8z M27.3,20h0.4c0.1,0.6,0.4,1.1,0.9,1.3
			c0.6,0.3,1.4,0.3,2-0.1c0.4-0.2,0.6-0.5,0.5-0.9c0-0.4-0.2-0.7-0.6-0.8c-0.4-0.2-0.9-0.3-1.3-0.4c-0.4-0.1-0.9-0.3-1.3-0.5
			c-0.7-0.3-0.7-1.6,0.1-2c0.8-0.5,1.8-0.5,2.6-0.1c0.5,0.3,0.8,0.8,0.7,1.4H31L30.9,18c-0.1-1-0.9-1.3-1.8-1.2
			c-0.3,0.1-0.6,0.1-0.8,0.3c-0.3,0.2-0.5,0.5-0.5,0.8c0,0.4,0.2,0.6,0.5,0.7c0.4,0.2,0.8,0.3,1.2,0.4l1,0.3
			c0.5,0.2,0.8,0.6,0.8,1.1c0.1,0.6-0.2,1.1-0.7,1.3c-0.9,0.5-2.3,0.4-3-0.3C27.5,21,27.3,20.5,27.3,20L27.3,20z M36.3,18.1H36
			c0-0.1,0-0.1,0-0.2c0-0.6-0.4-1-0.9-1.1c-0.5-0.2-1-0.1-1.5,0.1c-0.4,0.1-0.7,0.5-0.7,0.9c0,0.4,0.3,0.7,0.6,0.8l1.6,0.4
			c0.2,0.1,0.4,0.1,0.5,0.2c0.5,0.2,0.9,0.7,0.9,1.2c0,0.6-0.3,1-0.8,1.2c-0.8,0.4-1.6,0.4-2.4,0c-0.6-0.3-1-0.9-1-1.6h0.4
			c0.2,0.6,0.6,1.1,1.1,1.4s1.2,0.2,1.8-0.2c0.3-0.2,0.5-0.5,0.5-0.9c0-0.4-0.2-0.7-0.6-0.8c-0.4-0.2-0.9-0.3-1.3-0.4
			c-0.5-0.1-0.9-0.3-1.3-0.5c-0.7-0.3-0.7-1.6,0.1-2c0.8-0.5,1.8-0.5,2.6-0.1C36.1,17,36.4,17.5,36.3,18.1L36.3,18.1z M13.1,21.7
			c-0.3,0.1-0.6,0-0.8-0.3l-1.4-1.9l-0.2-0.3l-1.6,2.2c-0.2,0.3-0.5,0.4-0.7,0.3l2.1-2.8l-1.9-2.4c0.3-0.1,0.6,0,0.8,0.3l1.5,1.9
			l1.5-1.9c0.2-0.3,0.5-0.4,0.7-0.3l-0.7,1l-1.1,1.3c-0.1,0.1-0.1,0.3,0,0.4l0,0L13.1,21.7L13.1,21.7z M21.8,16.4v0.4
			c-1.1-0.1-2,0.7-2.1,1.8c0,0.1,0,0.1,0,0.2c0,0.9,0,1.8,0,2.6v0.3h-0.4v-5.3h0.4v1.1C20.3,16.8,21,16.5,21.8,16.4L21.8,16.4z
			 M3.5,18.9l0.2-0.8c0.5-1.7,2.3-2.3,3.6-1.3c0.8,0.6,0.9,1.5,0.9,2.4H4c-0.1,1.7,1.1,2.7,2.7,2.2c0.5-0.2,0.9-0.6,1-1.1
			C7.8,20,7.9,19.9,8.2,20c-0.1,0.7-0.5,1.2-1,1.6C6.2,22,5,21.9,4.3,21.2c-0.4-0.4-0.6-1-0.7-1.6c0-0.1-0.1-0.2-0.1-0.3
			C3.5,19.2,3.5,19.1,3.5,18.9L3.5,18.9z M4,18.8h3.8c0-1.2-0.8-2.1-1.8-2.1C4.9,16.7,4,17.6,4,18.8L4,18.8z"/>
	</g>
</g>
</svg>
